Coordinates
version=1
nRows=4
nColumns=63
inDegrees=yes

Units are S.I. units (second, meters, Newtons, ...)
If the header above contains a line with 'inDegrees', this indicates whether rotational values are in degrees (yes) or radians (no).

endheader
time	pelvis_tilt	pelvis_list	pelvis_rotation	pelvis_tx	pelvis_ty	pelvis_tz	hip_flexion_r	hip_adduction_r	hip_rotation_r	knee_angle_r	knee_angle_r_beta	ankle_angle_r	subtalar_angle_r	mtp_angle_r	hip_flexion_l	hip_adduction_l	hip_rotation_l	knee_angle_l	knee_angle_l_beta	ankle_angle_l	subtalar_angle_l	mtp_angle_l	L5_S1_Flex_Ext	L5_S1_Lat_Bending	L5_S1_axial_rotation	L4_L5_Flex_Ext	L4_L5_Lat_Bending	L4_L5_axial_rotation	L3_L4_Flex_Ext	L3_L4_Lat_Bending	L3_L4_axial_rotation	L2_L3_Flex_Ext	L2_L3_Lat_Bending	L2_L3_axial_rotation	L1_L2_Flex_Ext	L1_L2_Lat_Bending	L1_L2_axial_rotation	L1_T12_Flex_Ext	L1_T12_Lat_Bending	L1_T12_axial_rotation	Abs_r3	Abs_r2	Abs_r1	Abs_t1	Abs_t2	neck_flexion	neck_bending	neck_rotation	arm_flex_r	arm_add_r	arm_rot_r	elbow_flex_r	pro_sup_r	wrist_flex_r	wrist_dev_r	arm_flex_l	arm_add_l	arm_rot_l	elbow_flex_l	pro_sup_l	wrist_flex_l	wrist_dev_l
     14.30000000	      6.40669947	      4.42849143	    178.44517245	      0.41865734	      0.88938415	      0.30679679	     -1.33669096	      2.48278072	    -20.04447094	     18.05653160	      0.31514593	     26.70425551	     18.06021199	      0.00000000	     36.04352211	     -9.26538595	     -8.76971112	     21.84338491	      0.38123899	      4.03675000	    -14.19057743	      0.00000000	     -0.01089272	      0.49631670	      1.10972532	     -0.02022886	      0.66010121	      1.17908315	     -0.01789564	      1.20674443	      1.17908315	     -0.01244929	      1.20674443	      0.97100966	     -0.01011498	      1.01208902	      0.90165182	     -0.00622410	      0.76879457	      0.83229399	     -0.07780559	      5.61443378	      6.17195932	      0.00000000	      0.00000000	     -0.00000000	      0.00000000	      0.00000000	      5.55317176	    -15.97580755	     14.48203352	     35.31538814	     39.50158484	      0.00000000	      5.00000014	    -10.91420900	    -10.13104301	      8.96741119	     28.11189852	     45.89267051	      0.00000000	      5.00000014
     14.33333333	      6.45277887	      4.60915308	    177.98902714	      0.37687279	      0.88325375	      0.31060333	     -3.51295371	      1.90151379	    -20.08086999	     19.84361393	      0.34633640	     27.27179962	     17.80103104	      0.00000000	     35.63563803	     -9.25967654	    -11.60830495	     17.22021493	      0.30054945	      3.18895453	    -10.05370308	      0.00000000	     -0.00873101	      0.48955492	      1.25244933	     -0.01621436	      0.65110804	      1.33072742	     -0.01434418	      1.19030382	      1.33072742	     -0.00997867	      1.19030382	      1.09589317	     -0.00810762	      0.99830038	      1.01761508	     -0.00498890	      0.75832056	      0.93933700	     -0.06236474	      5.53794311	      6.96574745	      0.00000000	      0.00000000	     -0.00000000	      0.00000000	      0.00000000	      5.95957450	    -16.15047035	     14.25962923	     36.61130753	     39.67914340	      0.00000000	      5.00000014	    -11.52600450	     -9.91188452	      8.27194578	     27.64974831	     45.30583894	      0.00000000	      5.00000014
     14.36666667	      6.32348719	      4.25178894	    178.07096346	      0.33332567	      0.87830268	      0.31647493	     -5.21297678	      0.38332502	    -20.25299646	     23.03475228	      0.40203227	     26.79385025	     16.15364717	      0.00000000	     35.36331882	     -8.22957528	    -11.65975175	     16.07654279	      0.28058860	      2.62725910	     -9.84894924	      0.00000000	     -0.00871680	      0.42781250	      1.29364891	     -0.01618797	      0.56899062	      1.37450197	     -0.01432083	      1.04018331	      1.37450197	     -0.00996243	      1.04018331	      1.13194280	     -0.00809442	      0.87239525	      1.05108974	     -0.00498078	      0.66268156	      0.97023668	     -0.06226322	      4.83950056	      7.19488715	      0.00000000	      0.00000000	     -0.00000000	      0.00000000	      0.00000000	      5.79879560	    -16.09274725	     14.02522133	     37.41228240	     39.76277299	      0.00000000	      5.00000014	    -11.85950844	     -9.73328214	      7.56464563	     26.89094529	     45.01645444	      0.00000000	      5.00000014
     14.40000000	      6.08958246	      3.47117407	    178.20754658	      0.28850386	      0.87508507	      0.32347578	     -5.52600073	     -1.26171862	    -16.74684393	     28.35851152	      0.49494940	     24.46553449	      8.45668140	      0.00000000	     35.04220196	     -6.84426930	    -10.69339706	     17.81393447	      0.31091181	      2.78528376	    -11.90563293	      0.00000000	     -0.00796173	      0.32249462	      1.31802642	     -0.01478572	      0.42891784	      1.40040307	     -0.01308032	      0.78411341	      1.40040307	     -0.00909946	      0.78411341	      1.15327312	     -0.00739326	      0.65763102	      1.07089647	     -0.00454933	      0.49954416	      0.98851982	     -0.05686981	      3.64812360	      7.33046756	      0.00000000	      0.00000000	     -0.00000000	      0.00000000	      0.00000000	      5.03727264	    -15.64018055	     13.10335488	     37.69788287	     39.85740348	      0.00000000	      5.00000014	    -12.10799717	     -9.47969242	      5.92682330	     26.36056457	     44.51142619	      0.00000000	      5.00000014
